<?xml version="1.0" standalone="no"?><!DOCTYPE svg PUBLIC "-//W3C//DTD SVG 1.1//EN" "http://www.w3.org/Graphics/SVG/1.1/DTD/svg11.dtd"><svg t="1582611952420" class="icon" viewBox="0 0 1024 1024" version="1.1" xmlns="http://www.w3.org/2000/svg" p-id="31206" xmlns:xlink="http://www.w3.org/1999/xlink" width="20" height="20"><defs><style type="text/css"></style></defs><path d="M512 19.692308C240.128 19.692308 19.692308 240.088615 19.692308 512c0 271.872 220.396308 492.307692 492.307692 492.307692 271.872 0 492.307692-220.435692 492.307692-492.307692C1004.307692 240.088615 783.872 19.692308 512 19.692308z m0 941.764923c-248.221538 0-449.496615-201.235692-449.496615-449.496616C62.503385 263.699692 263.758769 62.464 512 62.464c248.221538 0 449.496615 201.275077 449.496615 449.496615S760.260923 961.457231 512 961.457231z m206.769231-532.066462c-10.220308 0-18.491077 8.270769-18.491077 18.510769 0 1.102769 0 93.164308-0.039385 95.744-1.614769 99.091692-84.558769 179.712-184.891077 179.712-100.726154 0-183.689846-80.974769-184.910769-180.460307l-0.019692-95.015385a18.471385 18.471385 0 1 0-36.982154 0v95.428923c1.417846 113.526154 91.057231 206.946462 203.421538 216.260923V810.279385h-84.086153a18.491077 18.491077 0 1 0 0 36.982153h205.134769a18.471385 18.471385 0 1 0 0-36.982153H533.858462v-50.116923-0.59077c111.911385-9.314462 201.531077-102.321231 203.382153-215.315692l0.039385-96.374154c0-10.220308-8.270769-18.491077-18.491077-18.491077z m-203.421539 238.867693c70.360615 0 127.606154-65.831385 127.606154-146.707693v-185.363692c0-80.876308-57.245538-146.688-127.606154-146.688-70.360615 0-127.606154 65.811692-127.606154 146.707692v185.344c0 80.876308 57.245538 146.707692 127.606154 146.707693z m-90.624-332.071385c0-57.225846 40.644923-103.778462 90.624-103.778462 49.979077 0 90.624 46.552615 90.624 103.778462v185.363692c0 57.225846-40.644923 103.778462-90.624 103.778462-49.979077 0-90.624-46.552615-90.624-103.778462v-185.363692z" fill="#8a8a8a" p-id="31207"></path></svg>