<?xml version="1.0" standalone="no"?><!DOCTYPE svg PUBLIC "-//W3C//DTD SVG 1.1//EN" "http://www.w3.org/Graphics/SVG/1.1/DTD/svg11.dtd"><svg t="1582610335232" class="icon" viewBox="0 0 1024 1024" version="1.1" xmlns="http://www.w3.org/2000/svg" p-id="2906" xmlns:xlink="http://www.w3.org/1999/xlink" width="20" height="20"><defs><style type="text/css"></style></defs><path d="M512 0C230.4 0 0 230.4 0 512s230.4 512 512 512 512-230.4 512-512S793.6 0 512 0z m243.2 704l-25.6 25.6-6.4 6.4-6.4 6.4c-32 32-140.8 76.8-332.8-108.8-179.2-179.2-128-288-102.4-320l44.8-44.8c19.2-19.2 51.2-19.2 70.4 0l64 64c19.2 19.2 19.2 51.2 0 70.4l-38.4 32-6.4 12.8c-19.2 19.2-19.2 25.6 6.4 51.2l96 89.6c44.8 38.4 51.2 38.4 70.4 25.6l32-38.4c19.2-19.2 51.2-25.6 70.4-6.4l64 64c19.2 19.2 19.2 51.2 0 70.4z" fill="#F1444A" p-id="2907"></path></svg>