<?xml version="1.0" standalone="no"?><!DOCTYPE svg PUBLIC "-//W3C//DTD SVG 1.1//EN" "http://www.w3.org/Graphics/SVG/1.1/DTD/svg11.dtd"><svg t="1582701880780" class="icon" viewBox="0 0 1025 1024" version="1.1" xmlns="http://www.w3.org/2000/svg" p-id="41743" xmlns:xlink="http://www.w3.org/1999/xlink" width="20.01953125" height="20"><defs><style type="text/css"></style></defs><path d="M512.093327 0A511.992541 511.992541 0 1 0 1023.957997 511.992541 512.333528 512.333528 0 0 0 512.093327 0z m172.156 737.129454a336.08568 336.08568 0 0 1-269.550519-90.361654c-106.814295-88.912458-137.631029-148.414754-151.270523-202.887487-27.236366-110.437286 38.020092-160.605053 83.882893-160.605053a41.046355 41.046355 0 0 1 34.397102 15.046068 234.81243 234.81243 0 0 1 44.456228 109.712687 112.73895 112.73895 0 0 1-38.702066 55.197332 191.379163 191.379163 0 0 0 82.433697 108.988089c74.548364 57.371126 108.263491 49.485793 108.263491 49.485792s36.570896-66.705655 64.489237-58.095723a724.171934 724.171934 0 0 1 111.11926 49.485792c38.020092 20.80023-7.160735 113.293055-69.5188 124.034157z m0 0" fill="#4A91E2" p-id="41744"></path></svg>